<mxfile host="app.diagrams.net" agent="Mozilla/5.0 (Windows NT 10.0; Win64; x64) AppleWebKit/537.36 (KHTML, like Gecko) Chrome/132.0.0.0 Safari/537.36" version="26.0.11">
  <diagram name="Page-1" id="d2gT9jO74Y9GQjBcZvpU">
    <mxGraphModel dx="1434" dy="1846" grid="1" gridSize="10" guides="1" tooltips="1" connect="1" arrows="1" fold="1" page="1" pageScale="1" pageWidth="850" pageHeight="1100" math="0" shadow="0">
      <root>
        <mxCell id="0" />
        <mxCell id="1" parent="0" />
        <mxCell id="ycLOsM9h5DoxczBOVg_R-183" value="" style="rounded=0;whiteSpace=wrap;html=1;" parent="1" vertex="1">
          <mxGeometry x="646.25" y="132" width="384" height="505" as="geometry" />
        </mxCell>
        <mxCell id="ycLOsM9h5DoxczBOVg_R-1" value="sever" style="swimlane;whiteSpace=wrap;html=1;" parent="1" vertex="1">
          <mxGeometry x="90" y="119.5" width="270" height="250" as="geometry" />
        </mxCell>
        <mxCell id="ycLOsM9h5DoxczBOVg_R-4" value="&lt;div&gt;Authentication:&lt;/div&gt;&lt;div&gt;POST /api/auth/register&lt;/div&gt;&lt;div&gt;POST /api/auth/login&lt;/div&gt;&lt;div&gt;GET /api/auth/validate&lt;/div&gt;&lt;div&gt;&lt;br&gt;&lt;/div&gt;&lt;div&gt;Heroes:&lt;/div&gt;&lt;div&gt;POST /api/heroes&lt;/div&gt;&lt;div&gt;GET /api/heroes&lt;/div&gt;&lt;div&gt;DELETE /api/heroes/:id&lt;/div&gt;&lt;div&gt;PUT /api/heroes/:id/rate&lt;/div&gt;&lt;div&gt;GET /api/heroes/filter/:rating&lt;/div&gt;&lt;div&gt;GET /api/heroes/search/:name (bonus)&lt;/div&gt;" style="text;html=1;align=left;verticalAlign=middle;resizable=0;points=[];autosize=1;strokeColor=none;fillColor=none;" parent="ycLOsM9h5DoxczBOVg_R-1" vertex="1">
          <mxGeometry y="37" width="230" height="190" as="geometry" />
        </mxCell>
        <mxCell id="ycLOsM9h5DoxczBOVg_R-3" value="client" style="swimlane;whiteSpace=wrap;html=1;" parent="1" vertex="1">
          <mxGeometry x="440" y="142" width="200" height="200" as="geometry" />
        </mxCell>
        <mxCell id="ycLOsM9h5DoxczBOVg_R-5" value="components:&lt;div&gt;- login&lt;/div&gt;&lt;div&gt;- heros&lt;/div&gt;&lt;div&gt;&lt;span style=&quot;white-space: pre;&quot;&gt;&#x9;&lt;/span&gt;-filterRatedHero&lt;br&gt;&lt;/div&gt;&lt;div&gt;&lt;span style=&quot;white-space: pre;&quot;&gt;&#x9;&lt;/span&gt;-searchHero&lt;br&gt;&lt;/div&gt;&lt;div&gt;&lt;span style=&quot;white-space: pre;&quot;&gt;&#x9;&lt;/span&gt;-heroList&lt;br&gt;&lt;/div&gt;&lt;div&gt;&lt;span style=&quot;white-space: pre;&quot;&gt;&#x9;&lt;/span&gt;&lt;span style=&quot;white-space: pre;&quot;&gt;&#x9;&lt;/span&gt;-HeroCard&lt;br&gt;&lt;/div&gt;&lt;div&gt;&lt;span style=&quot;white-space: pre;&quot;&gt;&#x9;&lt;/span&gt;-addHero&lt;br&gt;&lt;/div&gt;" style="text;html=1;align=left;verticalAlign=middle;resizable=0;points=[];autosize=1;strokeColor=none;fillColor=none;" parent="ycLOsM9h5DoxczBOVg_R-3" vertex="1">
          <mxGeometry y="14.5" width="130" height="130" as="geometry" />
        </mxCell>
        <mxCell id="ycLOsM9h5DoxczBOVg_R-10" value="" style="shape=cylinder3;whiteSpace=wrap;html=1;boundedLbl=1;backgroundOutline=1;size=15;" parent="1" vertex="1">
          <mxGeometry x="20" y="-30" width="60" height="80" as="geometry" />
        </mxCell>
        <mxCell id="ycLOsM9h5DoxczBOVg_R-186" style="edgeStyle=orthogonalEdgeStyle;rounded=0;orthogonalLoop=1;jettySize=auto;html=1;" parent="1" source="ycLOsM9h5DoxczBOVg_R-15" target="ycLOsM9h5DoxczBOVg_R-25" edge="1">
          <mxGeometry relative="1" as="geometry" />
        </mxCell>
        <mxCell id="ycLOsM9h5DoxczBOVg_R-15" value="hero" style="swimlane;fontStyle=0;childLayout=stackLayout;horizontal=1;startSize=30;horizontalStack=0;resizeParent=1;resizeParentMax=0;resizeLast=0;collapsible=1;marginBottom=0;whiteSpace=wrap;html=1;" parent="1" vertex="1">
          <mxGeometry x="100" y="-50" width="140" height="120" as="geometry" />
        </mxCell>
        <mxCell id="ycLOsM9h5DoxczBOVg_R-16" value="name: string" style="text;strokeColor=none;fillColor=none;align=left;verticalAlign=middle;spacingLeft=4;spacingRight=4;overflow=hidden;points=[[0,0.5],[1,0.5]];portConstraint=eastwest;rotatable=0;whiteSpace=wrap;html=1;" parent="ycLOsM9h5DoxczBOVg_R-15" vertex="1">
          <mxGeometry y="30" width="140" height="30" as="geometry" />
        </mxCell>
        <mxCell id="ycLOsM9h5DoxczBOVg_R-17" value="imageUrl: string" style="text;strokeColor=none;fillColor=none;align=left;verticalAlign=middle;spacingLeft=4;spacingRight=4;overflow=hidden;points=[[0,0.5],[1,0.5]];portConstraint=eastwest;rotatable=0;whiteSpace=wrap;html=1;" parent="ycLOsM9h5DoxczBOVg_R-15" vertex="1">
          <mxGeometry y="60" width="140" height="30" as="geometry" />
        </mxCell>
        <mxCell id="ycLOsM9h5DoxczBOVg_R-18" value="rating: number" style="text;strokeColor=none;fillColor=none;align=left;verticalAlign=middle;spacingLeft=4;spacingRight=4;overflow=hidden;points=[[0,0.5],[1,0.5]];portConstraint=eastwest;rotatable=0;whiteSpace=wrap;html=1;" parent="ycLOsM9h5DoxczBOVg_R-15" vertex="1">
          <mxGeometry y="90" width="140" height="30" as="geometry" />
        </mxCell>
        <mxCell id="ycLOsM9h5DoxczBOVg_R-19" value="user" style="swimlane;fontStyle=0;childLayout=stackLayout;horizontal=1;startSize=30;horizontalStack=0;resizeParent=1;resizeParentMax=0;resizeLast=0;collapsible=1;marginBottom=0;whiteSpace=wrap;html=1;" parent="1" vertex="1">
          <mxGeometry x="300" y="-35" width="140" height="90" as="geometry" />
        </mxCell>
        <mxCell id="ycLOsM9h5DoxczBOVg_R-20" value="name: string" style="text;strokeColor=none;fillColor=none;align=left;verticalAlign=middle;spacingLeft=4;spacingRight=4;overflow=hidden;points=[[0,0.5],[1,0.5]];portConstraint=eastwest;rotatable=0;whiteSpace=wrap;html=1;" parent="ycLOsM9h5DoxczBOVg_R-19" vertex="1">
          <mxGeometry y="30" width="140" height="30" as="geometry" />
        </mxCell>
        <mxCell id="ycLOsM9h5DoxczBOVg_R-21" value="password: string" style="text;strokeColor=none;fillColor=none;align=left;verticalAlign=middle;spacingLeft=4;spacingRight=4;overflow=hidden;points=[[0,0.5],[1,0.5]];portConstraint=eastwest;rotatable=0;whiteSpace=wrap;html=1;" parent="ycLOsM9h5DoxczBOVg_R-19" vertex="1">
          <mxGeometry y="60" width="140" height="30" as="geometry" />
        </mxCell>
        <mxCell id="ycLOsM9h5DoxczBOVg_R-23" value="usersheros" style="swimlane;fontStyle=0;childLayout=stackLayout;horizontal=1;startSize=30;horizontalStack=0;resizeParent=1;resizeParentMax=0;resizeLast=0;collapsible=1;marginBottom=0;whiteSpace=wrap;html=1;" parent="1" vertex="1">
          <mxGeometry x="200" y="-150" width="140" height="90" as="geometry" />
        </mxCell>
        <mxCell id="ycLOsM9h5DoxczBOVg_R-24" value="user: objectID" style="text;strokeColor=none;fillColor=none;align=left;verticalAlign=middle;spacingLeft=4;spacingRight=4;overflow=hidden;points=[[0,0.5],[1,0.5]];portConstraint=eastwest;rotatable=0;whiteSpace=wrap;html=1;" parent="ycLOsM9h5DoxczBOVg_R-23" vertex="1">
          <mxGeometry y="30" width="140" height="30" as="geometry" />
        </mxCell>
        <mxCell id="ycLOsM9h5DoxczBOVg_R-25" value="hero:objectID" style="text;strokeColor=none;fillColor=none;align=left;verticalAlign=middle;spacingLeft=4;spacingRight=4;overflow=hidden;points=[[0,0.5],[1,0.5]];portConstraint=eastwest;rotatable=0;whiteSpace=wrap;html=1;" parent="ycLOsM9h5DoxczBOVg_R-23" vertex="1">
          <mxGeometry y="60" width="140" height="30" as="geometry" />
        </mxCell>
        <mxCell id="ycLOsM9h5DoxczBOVg_R-27" value="" style="rounded=0;whiteSpace=wrap;html=1;" parent="1" vertex="1">
          <mxGeometry x="660" y="162" width="240" height="108" as="geometry" />
        </mxCell>
        <mxCell id="ycLOsM9h5DoxczBOVg_R-28" value="" style="rounded=0;whiteSpace=wrap;html=1;" parent="1" vertex="1">
          <mxGeometry x="710" y="174.5" width="180" height="20" as="geometry" />
        </mxCell>
        <mxCell id="ycLOsM9h5DoxczBOVg_R-29" value="name:" style="text;html=1;align=center;verticalAlign=middle;whiteSpace=wrap;rounded=0;" parent="1" vertex="1">
          <mxGeometry x="660" y="169.5" width="60" height="30" as="geometry" />
        </mxCell>
        <mxCell id="ycLOsM9h5DoxczBOVg_R-30" value="" style="rounded=0;whiteSpace=wrap;html=1;" parent="1" vertex="1">
          <mxGeometry x="720" y="199.5" width="170" height="20" as="geometry" />
        </mxCell>
        <mxCell id="ycLOsM9h5DoxczBOVg_R-31" value="password:" style="text;html=1;align=center;verticalAlign=middle;whiteSpace=wrap;rounded=0;" parent="1" vertex="1">
          <mxGeometry x="660" y="194.5" width="60" height="30" as="geometry" />
        </mxCell>
        <mxCell id="ycLOsM9h5DoxczBOVg_R-32" value="" style="rounded=1;whiteSpace=wrap;html=1;" parent="1" vertex="1">
          <mxGeometry x="670" y="229.5" width="90" height="25" as="geometry" />
        </mxCell>
        <mxCell id="ycLOsM9h5DoxczBOVg_R-33" value="login" style="text;html=1;align=center;verticalAlign=middle;whiteSpace=wrap;rounded=0;" parent="1" vertex="1">
          <mxGeometry x="685" y="227.5" width="60" height="30" as="geometry" />
        </mxCell>
        <mxCell id="ycLOsM9h5DoxczBOVg_R-36" value="" style="rounded=1;whiteSpace=wrap;html=1;" parent="1" vertex="1">
          <mxGeometry x="790" y="231.5" width="90" height="25" as="geometry" />
        </mxCell>
        <mxCell id="ycLOsM9h5DoxczBOVg_R-37" value="register" style="text;html=1;align=center;verticalAlign=middle;whiteSpace=wrap;rounded=0;" parent="1" vertex="1">
          <mxGeometry x="805" y="229.5" width="60" height="30" as="geometry" />
        </mxCell>
        <mxCell id="ycLOsM9h5DoxczBOVg_R-38" style="edgeStyle=orthogonalEdgeStyle;rounded=0;orthogonalLoop=1;jettySize=auto;html=1;exitX=0.5;exitY=1;exitDx=0;exitDy=0;" parent="1" source="ycLOsM9h5DoxczBOVg_R-27" target="ycLOsM9h5DoxczBOVg_R-27" edge="1">
          <mxGeometry relative="1" as="geometry" />
        </mxCell>
        <mxCell id="ycLOsM9h5DoxczBOVg_R-39" style="edgeStyle=orthogonalEdgeStyle;rounded=0;orthogonalLoop=1;jettySize=auto;html=1;exitX=0.5;exitY=1;exitDx=0;exitDy=0;" parent="1" source="ycLOsM9h5DoxczBOVg_R-27" target="ycLOsM9h5DoxczBOVg_R-27" edge="1">
          <mxGeometry relative="1" as="geometry" />
        </mxCell>
        <mxCell id="ycLOsM9h5DoxczBOVg_R-40" value="login" style="text;html=1;align=center;verticalAlign=middle;whiteSpace=wrap;rounded=0;" parent="1" vertex="1">
          <mxGeometry x="745" y="132" width="60" height="30" as="geometry" />
        </mxCell>
        <mxCell id="ycLOsM9h5DoxczBOVg_R-41" value="" style="rounded=0;whiteSpace=wrap;html=1;" parent="1" vertex="1">
          <mxGeometry x="650" y="300" width="335" height="270" as="geometry" />
        </mxCell>
        <mxCell id="ycLOsM9h5DoxczBOVg_R-45" value="heros" style="text;html=1;align=center;verticalAlign=middle;whiteSpace=wrap;rounded=0;" parent="1" vertex="1">
          <mxGeometry x="797.5" y="270" width="60" height="30" as="geometry" />
        </mxCell>
        <mxCell id="ycLOsM9h5DoxczBOVg_R-46" value="" style="verticalLabelPosition=bottom;verticalAlign=top;html=1;shape=mxgraph.basic.star;fillColor=#FFD966;" parent="1" vertex="1">
          <mxGeometry x="775" y="310" width="20" height="20" as="geometry" />
        </mxCell>
        <mxCell id="ycLOsM9h5DoxczBOVg_R-47" value="minimun hero rating:" style="text;html=1;align=center;verticalAlign=middle;whiteSpace=wrap;rounded=0;" parent="1" vertex="1">
          <mxGeometry x="652.5" y="305" width="125" height="30" as="geometry" />
        </mxCell>
        <mxCell id="ycLOsM9h5DoxczBOVg_R-49" value="" style="verticalLabelPosition=bottom;verticalAlign=top;html=1;shape=mxgraph.basic.star;fillColor=#FFD966;" parent="1" vertex="1">
          <mxGeometry x="800" y="310" width="20" height="20" as="geometry" />
        </mxCell>
        <mxCell id="ycLOsM9h5DoxczBOVg_R-50" value="" style="verticalLabelPosition=bottom;verticalAlign=top;html=1;shape=mxgraph.basic.star;fillColor=#FFD966;" parent="1" vertex="1">
          <mxGeometry x="825" y="310" width="20" height="20" as="geometry" />
        </mxCell>
        <mxCell id="ycLOsM9h5DoxczBOVg_R-51" value="" style="verticalLabelPosition=bottom;verticalAlign=top;html=1;shape=mxgraph.basic.star" parent="1" vertex="1">
          <mxGeometry x="852.5" y="310" width="20" height="20" as="geometry" />
        </mxCell>
        <mxCell id="ycLOsM9h5DoxczBOVg_R-52" value="" style="verticalLabelPosition=bottom;verticalAlign=top;html=1;shape=mxgraph.basic.star" parent="1" vertex="1">
          <mxGeometry x="880" y="310" width="20" height="20" as="geometry" />
        </mxCell>
        <mxCell id="ycLOsM9h5DoxczBOVg_R-54" value="" style="rounded=1;whiteSpace=wrap;html=1;" parent="1" vertex="1">
          <mxGeometry x="857.5" y="540" width="120" height="20" as="geometry" />
        </mxCell>
        <mxCell id="ycLOsM9h5DoxczBOVg_R-55" value="Add Hero" style="text;html=1;align=center;verticalAlign=middle;whiteSpace=wrap;rounded=0;" parent="1" vertex="1">
          <mxGeometry x="887.5" y="535" width="60" height="30" as="geometry" />
        </mxCell>
        <mxCell id="ycLOsM9h5DoxczBOVg_R-113" value="" style="rounded=0;whiteSpace=wrap;html=1;" parent="1" vertex="1">
          <mxGeometry x="792.5" y="451.25" width="65" height="80" as="geometry" />
        </mxCell>
        <mxCell id="ycLOsM9h5DoxczBOVg_R-114" value="" style="shape=note;whiteSpace=wrap;html=1;backgroundOutline=1;darkOpacity=0.05;size=13;" parent="1" vertex="1">
          <mxGeometry x="800" y="463.75" width="50" height="40" as="geometry" />
        </mxCell>
        <mxCell id="ycLOsM9h5DoxczBOVg_R-115" value="img" style="text;html=1;align=center;verticalAlign=middle;whiteSpace=wrap;rounded=0;" parent="1" vertex="1">
          <mxGeometry x="809" y="476.25" width="28.5" height="15" as="geometry" />
        </mxCell>
        <mxCell id="ycLOsM9h5DoxczBOVg_R-116" value="" style="verticalLabelPosition=bottom;verticalAlign=top;html=1;shape=mxgraph.basic.star;fillColor=#FFD966;" parent="1" vertex="1">
          <mxGeometry x="795" y="510" width="10" height="12.5" as="geometry" />
        </mxCell>
        <mxCell id="ycLOsM9h5DoxczBOVg_R-117" value="" style="verticalLabelPosition=bottom;verticalAlign=top;html=1;shape=mxgraph.basic.star;fillColor=#FFD966;" parent="1" vertex="1">
          <mxGeometry x="805" y="510" width="10" height="12.5" as="geometry" />
        </mxCell>
        <mxCell id="ycLOsM9h5DoxczBOVg_R-118" value="" style="verticalLabelPosition=bottom;verticalAlign=top;html=1;shape=mxgraph.basic.star;fillColor=#FFD966;" parent="1" vertex="1">
          <mxGeometry x="815" y="510" width="10" height="12.5" as="geometry" />
        </mxCell>
        <mxCell id="ycLOsM9h5DoxczBOVg_R-119" value="" style="verticalLabelPosition=bottom;verticalAlign=top;html=1;shape=mxgraph.basic.star;fillColor=#FFD966;" parent="1" vertex="1">
          <mxGeometry x="825" y="510" width="10" height="12.5" as="geometry" />
        </mxCell>
        <mxCell id="ycLOsM9h5DoxczBOVg_R-120" value="" style="verticalLabelPosition=bottom;verticalAlign=top;html=1;shape=mxgraph.basic.star;fillColor=#FFFFFF;" parent="1" vertex="1">
          <mxGeometry x="835" y="510" width="10" height="12.5" as="geometry" />
        </mxCell>
        <mxCell id="ycLOsM9h5DoxczBOVg_R-121" value="heroName" style="text;html=1;align=center;verticalAlign=middle;whiteSpace=wrap;rounded=0;" parent="1" vertex="1">
          <mxGeometry x="795" y="441.25" width="60" height="30" as="geometry" />
        </mxCell>
        <mxCell id="ycLOsM9h5DoxczBOVg_R-122" value="" style="rounded=0;whiteSpace=wrap;html=1;" parent="1" vertex="1">
          <mxGeometry x="790.75" y="365" width="65" height="80" as="geometry" />
        </mxCell>
        <mxCell id="ycLOsM9h5DoxczBOVg_R-123" value="" style="shape=note;whiteSpace=wrap;html=1;backgroundOutline=1;darkOpacity=0.05;size=13;" parent="1" vertex="1">
          <mxGeometry x="798.25" y="377.5" width="50" height="40" as="geometry" />
        </mxCell>
        <mxCell id="ycLOsM9h5DoxczBOVg_R-124" value="img" style="text;html=1;align=center;verticalAlign=middle;whiteSpace=wrap;rounded=0;" parent="1" vertex="1">
          <mxGeometry x="807.25" y="390" width="28.5" height="15" as="geometry" />
        </mxCell>
        <mxCell id="ycLOsM9h5DoxczBOVg_R-125" value="" style="verticalLabelPosition=bottom;verticalAlign=top;html=1;shape=mxgraph.basic.star;fillColor=#FFD966;" parent="1" vertex="1">
          <mxGeometry x="793.25" y="423.75" width="10" height="12.5" as="geometry" />
        </mxCell>
        <mxCell id="ycLOsM9h5DoxczBOVg_R-126" value="" style="verticalLabelPosition=bottom;verticalAlign=top;html=1;shape=mxgraph.basic.star;fillColor=#FFD966;" parent="1" vertex="1">
          <mxGeometry x="803.25" y="423.75" width="10" height="12.5" as="geometry" />
        </mxCell>
        <mxCell id="ycLOsM9h5DoxczBOVg_R-127" value="" style="verticalLabelPosition=bottom;verticalAlign=top;html=1;shape=mxgraph.basic.star;fillColor=#FFD966;" parent="1" vertex="1">
          <mxGeometry x="813.25" y="423.75" width="10" height="12.5" as="geometry" />
        </mxCell>
        <mxCell id="ycLOsM9h5DoxczBOVg_R-128" value="" style="verticalLabelPosition=bottom;verticalAlign=top;html=1;shape=mxgraph.basic.star;fillColor=#FFD966;" parent="1" vertex="1">
          <mxGeometry x="823.25" y="423.75" width="10" height="12.5" as="geometry" />
        </mxCell>
        <mxCell id="ycLOsM9h5DoxczBOVg_R-129" value="" style="verticalLabelPosition=bottom;verticalAlign=top;html=1;shape=mxgraph.basic.star;fillColor=#FFD966;" parent="1" vertex="1">
          <mxGeometry x="833.25" y="423.75" width="10" height="12.5" as="geometry" />
        </mxCell>
        <mxCell id="ycLOsM9h5DoxczBOVg_R-130" value="heroName" style="text;html=1;align=center;verticalAlign=middle;whiteSpace=wrap;rounded=0;" parent="1" vertex="1">
          <mxGeometry x="793.25" y="355" width="60" height="30" as="geometry" />
        </mxCell>
        <mxCell id="ycLOsM9h5DoxczBOVg_R-133" value="" style="rounded=0;whiteSpace=wrap;html=1;" parent="1" vertex="1">
          <mxGeometry x="660" y="545" width="80" height="11" as="geometry" />
        </mxCell>
        <mxCell id="ycLOsM9h5DoxczBOVg_R-134" value="" style="rounded=0;whiteSpace=wrap;html=1;" parent="1" vertex="1">
          <mxGeometry x="760" y="545" width="80" height="11" as="geometry" />
        </mxCell>
        <mxCell id="ycLOsM9h5DoxczBOVg_R-135" value="name" style="text;html=1;align=center;verticalAlign=middle;whiteSpace=wrap;rounded=0;" parent="1" vertex="1">
          <mxGeometry x="670" y="522" width="60" height="30" as="geometry" />
        </mxCell>
        <mxCell id="ycLOsM9h5DoxczBOVg_R-136" value="Image URL" style="text;html=1;align=center;verticalAlign=middle;whiteSpace=wrap;rounded=0;" parent="1" vertex="1">
          <mxGeometry x="766" y="522" width="64" height="30" as="geometry" />
        </mxCell>
        <mxCell id="ycLOsM9h5DoxczBOVg_R-138" value="" style="shape=mxgraph.mockup.markup.redX;fillColor=#ff0000;html=1;shadow=0;whiteSpace=wrap;strokeColor=none;" parent="1" vertex="1">
          <mxGeometry x="847" y="426.88" width="6.25" height="6.25" as="geometry" />
        </mxCell>
        <mxCell id="ycLOsM9h5DoxczBOVg_R-139" value="" style="shape=mxgraph.mockup.markup.redX;fillColor=#ff0000;html=1;shadow=0;whiteSpace=wrap;strokeColor=none;" parent="1" vertex="1">
          <mxGeometry x="847" y="513.13" width="6.25" height="6.25" as="geometry" />
        </mxCell>
        <mxCell id="ycLOsM9h5DoxczBOVg_R-140" value="search hero:" style="text;html=1;align=center;verticalAlign=middle;whiteSpace=wrap;rounded=0;" parent="1" vertex="1">
          <mxGeometry x="652.5" y="330" width="125" height="30" as="geometry" />
        </mxCell>
        <mxCell id="ycLOsM9h5DoxczBOVg_R-141" value="" style="rounded=0;whiteSpace=wrap;html=1;" parent="1" vertex="1">
          <mxGeometry x="756.5" y="337.5" width="122" height="15" as="geometry" />
        </mxCell>
        <mxCell id="ycLOsM9h5DoxczBOVg_R-143" value="" style="sketch=0;outlineConnect=0;fontColor=#232F3E;gradientColor=none;fillColor=#232F3D;strokeColor=none;dashed=0;verticalLabelPosition=bottom;verticalAlign=top;align=center;html=1;fontSize=12;fontStyle=0;aspect=fixed;pointerEvents=1;shape=mxgraph.aws4.magnifying_glass_2;" parent="1" vertex="1">
          <mxGeometry x="882.5" y="337.5" width="15" height="15" as="geometry" />
        </mxCell>
        <mxCell id="ycLOsM9h5DoxczBOVg_R-144" value="" style="endArrow=none;html=1;rounded=0;" parent="1" edge="1">
          <mxGeometry width="50" height="50" relative="1" as="geometry">
            <mxPoint x="400" y="560" as="sourcePoint" />
            <mxPoint x="400" y="80" as="targetPoint" />
          </mxGeometry>
        </mxCell>
        <mxCell id="ycLOsM9h5DoxczBOVg_R-148" style="edgeStyle=orthogonalEdgeStyle;rounded=0;orthogonalLoop=1;jettySize=auto;html=1;entryX=0.5;entryY=1;entryDx=0;entryDy=0;" parent="1" source="ycLOsM9h5DoxczBOVg_R-145" target="ycLOsM9h5DoxczBOVg_R-33" edge="1">
          <mxGeometry relative="1" as="geometry">
            <Array as="points">
              <mxPoint x="715" y="416" />
            </Array>
          </mxGeometry>
        </mxCell>
        <mxCell id="ycLOsM9h5DoxczBOVg_R-154" value="&lt;span style=&quot;font-size: 12px; text-align: left; background-color: rgb(251, 251, 251);&quot;&gt;POST /api/auth/login&lt;/span&gt;" style="edgeLabel;html=1;align=center;verticalAlign=middle;resizable=0;points=[];" parent="ycLOsM9h5DoxczBOVg_R-148" vertex="1" connectable="0">
          <mxGeometry x="-0.0128" relative="1" as="geometry">
            <mxPoint as="offset" />
          </mxGeometry>
        </mxCell>
        <mxCell id="ycLOsM9h5DoxczBOVg_R-145" value="login" style="shape=process;whiteSpace=wrap;html=1;backgroundOutline=1;" parent="1" vertex="1">
          <mxGeometry x="120" y="395" width="140" height="41.25" as="geometry" />
        </mxCell>
        <mxCell id="ycLOsM9h5DoxczBOVg_R-156" style="edgeStyle=orthogonalEdgeStyle;rounded=0;orthogonalLoop=1;jettySize=auto;html=1;" parent="1" source="ycLOsM9h5DoxczBOVg_R-155" target="ycLOsM9h5DoxczBOVg_R-37" edge="1">
          <mxGeometry relative="1" as="geometry">
            <Array as="points">
              <mxPoint x="770" y="471" />
              <mxPoint x="770" y="245" />
            </Array>
          </mxGeometry>
        </mxCell>
        <mxCell id="ycLOsM9h5DoxczBOVg_R-157" value="&lt;div style=&quot;font-size: 12px; text-align: left; background-color: rgb(251, 251, 251);&quot;&gt;POST /api/auth/register&lt;/div&gt;&lt;div&gt;&lt;br&gt;&lt;/div&gt;" style="edgeLabel;html=1;align=center;verticalAlign=middle;resizable=0;points=[];" parent="ycLOsM9h5DoxczBOVg_R-156" vertex="1" connectable="0">
          <mxGeometry x="-0.3335" y="-3" relative="1" as="geometry">
            <mxPoint as="offset" />
          </mxGeometry>
        </mxCell>
        <mxCell id="ycLOsM9h5DoxczBOVg_R-155" value="register" style="shape=process;whiteSpace=wrap;html=1;backgroundOutline=1;" parent="1" vertex="1">
          <mxGeometry x="120" y="450" width="140" height="41.25" as="geometry" />
        </mxCell>
        <mxCell id="ycLOsM9h5DoxczBOVg_R-160" style="edgeStyle=orthogonalEdgeStyle;rounded=0;orthogonalLoop=1;jettySize=auto;html=1;" parent="1" source="ycLOsM9h5DoxczBOVg_R-159" target="ycLOsM9h5DoxczBOVg_R-54" edge="1">
          <mxGeometry relative="1" as="geometry">
            <Array as="points">
              <mxPoint x="918" y="520" />
            </Array>
          </mxGeometry>
        </mxCell>
        <mxCell id="ycLOsM9h5DoxczBOVg_R-161" value="&lt;div style=&quot;font-size: 12px; text-align: left; background-color: rgb(251, 251, 251);&quot;&gt;POST /api/heroes&lt;/div&gt;&lt;div&gt;&lt;br&gt;&lt;/div&gt;" style="edgeLabel;html=1;align=center;verticalAlign=middle;resizable=0;points=[];" parent="ycLOsM9h5DoxczBOVg_R-160" vertex="1" connectable="0">
          <mxGeometry x="-0.3025" y="1" relative="1" as="geometry">
            <mxPoint y="1" as="offset" />
          </mxGeometry>
        </mxCell>
        <mxCell id="ycLOsM9h5DoxczBOVg_R-159" value="addHero" style="shape=process;whiteSpace=wrap;html=1;backgroundOutline=1;" parent="1" vertex="1">
          <mxGeometry x="120" y="498.75" width="140" height="41.25" as="geometry" />
        </mxCell>
        <mxCell id="ycLOsM9h5DoxczBOVg_R-165" style="edgeStyle=orthogonalEdgeStyle;rounded=0;orthogonalLoop=1;jettySize=auto;html=1;" parent="1" source="ycLOsM9h5DoxczBOVg_R-164" target="ycLOsM9h5DoxczBOVg_R-143" edge="1">
          <mxGeometry relative="1" as="geometry">
            <Array as="points">
              <mxPoint x="610" y="571" />
              <mxPoint x="610" y="345" />
            </Array>
          </mxGeometry>
        </mxCell>
        <mxCell id="ycLOsM9h5DoxczBOVg_R-166" value="&lt;span style=&quot;font-size: 12px; text-align: left; background-color: rgb(251, 251, 251);&quot;&gt;GET /api/heroes/search/:name&lt;/span&gt;" style="edgeLabel;html=1;align=center;verticalAlign=middle;resizable=0;points=[];" parent="ycLOsM9h5DoxczBOVg_R-165" vertex="1" connectable="0">
          <mxGeometry x="-0.5261" y="3" relative="1" as="geometry">
            <mxPoint as="offset" />
          </mxGeometry>
        </mxCell>
        <mxCell id="ycLOsM9h5DoxczBOVg_R-164" value="searchHeros" style="shape=process;whiteSpace=wrap;html=1;backgroundOutline=1;" parent="1" vertex="1">
          <mxGeometry x="120" y="550" width="140" height="41.25" as="geometry" />
        </mxCell>
        <mxCell id="ycLOsM9h5DoxczBOVg_R-168" style="edgeStyle=orthogonalEdgeStyle;rounded=0;orthogonalLoop=1;jettySize=auto;html=1;" parent="1" source="ycLOsM9h5DoxczBOVg_R-167" target="ycLOsM9h5DoxczBOVg_R-41" edge="1">
          <mxGeometry relative="1" as="geometry" />
        </mxCell>
        <mxCell id="ycLOsM9h5DoxczBOVg_R-169" value="&lt;div style=&quot;font-size: 12px; text-align: left; background-color: rgb(251, 251, 251);&quot;&gt;GET /api/heroes&lt;/div&gt;&lt;div&gt;&lt;br&gt;&lt;/div&gt;" style="edgeLabel;html=1;align=center;verticalAlign=middle;resizable=0;points=[];" parent="ycLOsM9h5DoxczBOVg_R-168" vertex="1" connectable="0">
          <mxGeometry x="-0.3785" y="1" relative="1" as="geometry">
            <mxPoint as="offset" />
          </mxGeometry>
        </mxCell>
        <mxCell id="ycLOsM9h5DoxczBOVg_R-167" value="getHeros" style="shape=process;whiteSpace=wrap;html=1;backgroundOutline=1;" parent="1" vertex="1">
          <mxGeometry x="120" y="600" width="140" height="41.25" as="geometry" />
        </mxCell>
        <mxCell id="ycLOsM9h5DoxczBOVg_R-170" value="deleteHero" style="shape=process;whiteSpace=wrap;html=1;backgroundOutline=1;" parent="1" vertex="1">
          <mxGeometry x="120" y="650" width="140" height="41.25" as="geometry" />
        </mxCell>
        <mxCell id="ycLOsM9h5DoxczBOVg_R-171" style="edgeStyle=orthogonalEdgeStyle;rounded=0;orthogonalLoop=1;jettySize=auto;html=1;entryX=0.64;entryY=0.459;entryDx=0;entryDy=0;entryPerimeter=0;" parent="1" source="ycLOsM9h5DoxczBOVg_R-170" target="ycLOsM9h5DoxczBOVg_R-139" edge="1">
          <mxGeometry relative="1" as="geometry" />
        </mxCell>
        <mxCell id="ycLOsM9h5DoxczBOVg_R-174" value="&lt;div style=&quot;font-size: 12px; text-align: left; background-color: rgb(251, 251, 251);&quot;&gt;&lt;div&gt;DELETE /api/heroes/:id&lt;/div&gt;&lt;div&gt;&lt;br&gt;&lt;/div&gt;&lt;/div&gt;" style="edgeLabel;html=1;align=center;verticalAlign=middle;resizable=0;points=[];" parent="ycLOsM9h5DoxczBOVg_R-171" vertex="1" connectable="0">
          <mxGeometry x="-0.6352" y="3" relative="1" as="geometry">
            <mxPoint as="offset" />
          </mxGeometry>
        </mxCell>
        <mxCell id="ycLOsM9h5DoxczBOVg_R-172" value="rateHero" style="shape=process;whiteSpace=wrap;html=1;backgroundOutline=1;" parent="1" vertex="1">
          <mxGeometry x="120" y="700" width="140" height="41.25" as="geometry" />
        </mxCell>
        <mxCell id="ycLOsM9h5DoxczBOVg_R-175" style="edgeStyle=orthogonalEdgeStyle;rounded=0;orthogonalLoop=1;jettySize=auto;html=1;entryX=0.5;entryY=0.76;entryDx=0;entryDy=0;entryPerimeter=0;" parent="1" source="ycLOsM9h5DoxczBOVg_R-172" target="ycLOsM9h5DoxczBOVg_R-119" edge="1">
          <mxGeometry relative="1" as="geometry" />
        </mxCell>
        <mxCell id="ycLOsM9h5DoxczBOVg_R-176" value="&lt;div style=&quot;font-size: 12px; text-align: left; background-color: rgb(251, 251, 251);&quot;&gt;PUT /api/heroes/:id/rate&lt;/div&gt;&lt;div&gt;&lt;br&gt;&lt;/div&gt;" style="edgeLabel;html=1;align=center;verticalAlign=middle;resizable=0;points=[];" parent="ycLOsM9h5DoxczBOVg_R-175" vertex="1" connectable="0">
          <mxGeometry x="-0.7199" y="-2" relative="1" as="geometry">
            <mxPoint as="offset" />
          </mxGeometry>
        </mxCell>
        <mxCell id="ycLOsM9h5DoxczBOVg_R-177" value="filterRatedHeros" style="shape=process;whiteSpace=wrap;html=1;backgroundOutline=1;" parent="1" vertex="1">
          <mxGeometry x="120" y="750" width="140" height="41.25" as="geometry" />
        </mxCell>
        <mxCell id="ycLOsM9h5DoxczBOVg_R-178" style="edgeStyle=orthogonalEdgeStyle;rounded=0;orthogonalLoop=1;jettySize=auto;html=1;entryX=0.5;entryY=0.76;entryDx=0;entryDy=0;entryPerimeter=0;" parent="1" source="ycLOsM9h5DoxczBOVg_R-177" target="ycLOsM9h5DoxczBOVg_R-50" edge="1">
          <mxGeometry relative="1" as="geometry" />
        </mxCell>
        <mxCell id="ycLOsM9h5DoxczBOVg_R-179" value="&lt;div style=&quot;font-size: 12px; text-align: left; background-color: rgb(251, 251, 251);&quot;&gt;GET /api/heroes/filter/:rating&lt;/div&gt;&lt;div&gt;&lt;br&gt;&lt;/div&gt;" style="edgeLabel;html=1;align=center;verticalAlign=middle;resizable=0;points=[];" parent="ycLOsM9h5DoxczBOVg_R-178" vertex="1" connectable="0">
          <mxGeometry x="-0.8236" y="-1" relative="1" as="geometry">
            <mxPoint as="offset" />
          </mxGeometry>
        </mxCell>
        <mxCell id="ycLOsM9h5DoxczBOVg_R-180" value="validateUser" style="shape=process;whiteSpace=wrap;html=1;backgroundOutline=1;" parent="1" vertex="1">
          <mxGeometry x="120" y="810" width="140" height="41.25" as="geometry" />
        </mxCell>
        <mxCell id="ycLOsM9h5DoxczBOVg_R-181" style="edgeStyle=orthogonalEdgeStyle;rounded=0;orthogonalLoop=1;jettySize=auto;html=1;entryX=0.637;entryY=1.002;entryDx=0;entryDy=0;entryPerimeter=0;" parent="1" source="ycLOsM9h5DoxczBOVg_R-180" target="ycLOsM9h5DoxczBOVg_R-183" edge="1">
          <mxGeometry relative="1" as="geometry">
            <mxPoint x="880" y="610" as="targetPoint" />
          </mxGeometry>
        </mxCell>
        <mxCell id="ycLOsM9h5DoxczBOVg_R-182" value="&lt;div&gt;GET /api/auth/validate&lt;/div&gt;&lt;div&gt;&lt;br style=&quot;font-size: 12px; text-align: left; background-color: rgb(251, 251, 251);&quot;&gt;&lt;/div&gt;" style="edgeLabel;html=1;align=center;verticalAlign=middle;resizable=0;points=[];" parent="ycLOsM9h5DoxczBOVg_R-181" vertex="1" connectable="0">
          <mxGeometry x="-0.6922" relative="1" as="geometry">
            <mxPoint as="offset" />
          </mxGeometry>
        </mxCell>
        <mxCell id="ycLOsM9h5DoxczBOVg_R-184" value="app" style="text;html=1;align=center;verticalAlign=middle;whiteSpace=wrap;rounded=0;" parent="1" vertex="1">
          <mxGeometry x="783" y="112" width="60" height="30" as="geometry" />
        </mxCell>
        <mxCell id="ycLOsM9h5DoxczBOVg_R-185" style="edgeStyle=orthogonalEdgeStyle;rounded=0;orthogonalLoop=1;jettySize=auto;html=1;exitX=0.5;exitY=0;exitDx=0;exitDy=0;" parent="1" source="ycLOsM9h5DoxczBOVg_R-19" target="ycLOsM9h5DoxczBOVg_R-24" edge="1">
          <mxGeometry relative="1" as="geometry">
            <Array as="points">
              <mxPoint x="370" y="-105" />
            </Array>
          </mxGeometry>
        </mxCell>
      </root>
    </mxGraphModel>
  </diagram>
</mxfile>
